<?xml version="1.0" standalone="no"?>
<!DOCTYPE svg PUBLIC "-//W3C//DTD SVG 20010904//EN"
 "http://www.w3.org/TR/2001/REC-SVG-20010904/DTD/svg10.dtd">
<svg version="1.0" xmlns="http://www.w3.org/2000/svg"
 width="216.000000pt" height="216.000000pt" viewBox="0 0 216.000000 216.000000"
 preserveAspectRatio="xMidYMid meet">
<metadata>
Created by potrace 1.11, written by Peter Selinger 2001-2013
</metadata>
<g transform="translate(0.000000,216.000000) scale(0.100000,-0.100000)"
fill="#000000" stroke="none">
<path d="M310 1151 c0 -614 3 -780 13 -783 6 -2 374 -4 817 -4 l805 1 3 783 2
782 -820 0 -820 0 0 -779z m1615 -6 l0 -750 -797 -1 -796 0 0 753 0 753 796
-2 797 -3 0 -750z"/>
<path d="M1060 1869 c-88 -22 -116 -27 -192 -35 -31 -4 -61 -10 -67 -13 -9 -6
-38 -117 -57 -221 -3 -14 -16 -86 -30 -160 -13 -74 -26 -142 -29 -150 -2 -8
-7 -37 -11 -65 -3 -27 -8 -53 -10 -56 -4 -7 -10 -44 -19 -114 -13 -106 -45
-202 -70 -212 -20 -7 -72 15 -79 33 -3 8 -9 14 -14 14 -4 0 -39 -67 -76 -150
l-68 -150 23 -20 c13 -10 29 -19 36 -20 6 0 9 -8 6 -18 -11 -43 166 -119 252
-109 60 8 96 28 144 83 81 92 138 258 187 549 3 17 14 68 24 115 18 81 23 103
36 168 3 15 11 52 19 82 8 30 16 66 19 80 7 38 63 253 71 271 5 13 1 15 -19
12 l-26 -5 16 52 c8 29 14 53 12 55 -2 1 -37 -6 -78 -16z"/>
<path d="M1320 1805 c-113 -20 -144 -26 -148 -29 -4 -4 -10 -40 -18 -96 -3
-25 -7 -47 -9 -50 -2 -3 -6 -30 -10 -60 -4 -30 -8 -57 -10 -60 -2 -3 -6 -24
-9 -46 -4 -22 -9 -51 -11 -64 -6 -28 -36 -194 -41 -225 -2 -11 -6 -33 -9 -50
-3 -16 -15 -79 -26 -140 -11 -60 -31 -164 -45 -229 -14 -66 -27 -135 -30 -155
-3 -20 -9 -53 -14 -74 -4 -21 -4 -38 1 -38 5 -1 14 -3 19 -4 6 -1 17 -3 26 -4
12 -1 15 -9 12 -31 -5 -33 -12 -31 107 -34 122 -3 277 54 400 149 152 116 270
288 339 495 61 183 65 324 16 473 -52 155 -92 205 -200 256 -47 21 -71 26
-160 27 -58 1 -139 -4 -180 -11z m244 -369 c24 -98 -111 -486 -210 -602 -14
-16 -23 -24 -20 -18 3 6 8 26 11 45 8 46 74 355 85 399 5 19 11 46 13 60 21
117 31 149 46 153 29 6 69 -14 75 -37z"/>
</g>
</svg>
